<svg xmlns="http://www.w3.org/2000/svg" width="120.65" height="102.347" viewBox="0 0 120.65 102.347">
  <g id="logo" transform="translate(-0.63 -0.8)">
    <path id="Path_2" data-name="Path 2" d="M66.06,128.34V90.4H83.844v37.94" transform="translate(-40.174 -56.137)" fill="none" stroke="#009444" stroke-miterlimit="10" stroke-width="3.7"/>
    <path id="Path_1" data-name="Path 1" d="M2.48,28.291,34.927,3.14l32.307,25V74.072H34.857V99.355L2.48,74.072Z" fill="none" stroke="#1268b3" stroke-miterlimit="10" stroke-width="3.7"/>
    <g id="Group_1" data-name="Group 1" transform="translate(6 2)">
      <path id="Path_3" data-name="Path 3" d="M129.745,234.854V236.5h-12.4a13.666,13.666,0,0,1-3.641-.368,3.483,3.483,0,0,1-1.951-1.222,3.806,3.806,0,0,1-.611-2.3,29.58,29.58,0,0,1,.736-5.434l1.436.07-.239,1.918c-.018.173-.07.618-.155,1.325a14.528,14.528,0,0,0-.133,1.69,2.684,2.684,0,0,0,.42,1.605,2.356,2.356,0,0,0,1.388.825,11.276,11.276,0,0,0,2.717.25H124.4V224.55h1.841v10.308Zm-11.489,3.571h1.819v2.01h-1.819Z" transform="translate(-70.591 -141.57)" fill="#414042" stroke="#414042" stroke-width="0.4"/>
      <path id="Path_4" data-name="Path 4" d="M179.515,227.407a17.672,17.672,0,0,1,.228,2.419v6.645h-4.454a4.049,4.049,0,0,1-2.658-1,2.846,2.846,0,0,1-2.271,1H161.69v-1.653h3.88V225.71h1.841v9.119h2.367a1.664,1.664,0,0,0,1.6-.935,5.154,5.154,0,0,0,.49-2.385v-5.8h1.841v5.769a8.541,8.541,0,0,1-.335,2.536,3.626,3.626,0,0,0,.909.563,2.614,2.614,0,0,0,1.1.25H177.9v-5.194c0-.6-.044-1.369-.133-2.286s-.188-1.841-.3-2.765l1.509-.074Q179.287,225.879,179.515,227.407Z" transform="translate(-102.536 -141.544)" fill="#414042" stroke="#414042" stroke-width="0.4"/>
      <path id="Path_5" data-name="Path 5" d="M225.23,225.875v1.642h-4.09V210.34h1.841v15.535Z" transform="translate(-140.101 -132.591)" fill="#414042" stroke="#414042" stroke-width="0.4"/>
      <path id="Path_6" data-name="Path 6" d="M248.267,225.856V227.5H232.25v-1.653H243v-3.471a5.382,5.382,0,0,0-.541-2.489,1.9,1.9,0,0,0-1.782-1.079h-6.49l-1.219-1.649,1.244-2.444a17.028,17.028,0,0,1,1.3-2.095c.582-.821,1.171-1.59,1.76-2.308l1.318.736c-.736,1.1-1.285,1.951-1.653,2.551s-.7,1.193-1,1.782l-.909,1.774h5.794a3.389,3.389,0,0,1,3.052,1.473,6.766,6.766,0,0,1,.968,3.784v3.446Z" transform="translate(-147.121 -132.572)" fill="#414042" stroke="#414042" stroke-width="0.4"/>
      <path id="Path_7" data-name="Path 7" d="M288.306,225.28q1.392,1.436,1.388,4.786v5.975H275.76v-1.653h3.95a26.292,26.292,0,0,1-.335-4.189,26.642,26.642,0,0,1,.191-3.17,23.472,23.472,0,0,1,.431-2.551,8.936,8.936,0,0,1,1.679-.442A12.672,12.672,0,0,1,284,223.83,5.779,5.779,0,0,1,288.306,225.28Zm-6.994,7.263c.074.777.147,1.4.228,1.841h6.3v-4.34a4.9,4.9,0,0,0-1.031-3.5,4.191,4.191,0,0,0-3.136-1.053,8.272,8.272,0,0,0-2.084.239,24.889,24.889,0,0,0-.368,4.476q0,1.178.107,2.334Z" transform="translate(-174.613 -141.115)" fill="#414042" stroke="#414042" stroke-width="0.4"/>
    </g>
  </g>
</svg>
