<svg xmlns="http://www.w3.org/2000/svg" width="511.31" height="431.2" viewBox="0 0 511.31 431.2">
  <g id="bar-chart" transform="translate(-0.395)">
    <path id="Path_20" data-name="Path 20" d="M125.8,121.3h86.6V417.7H125.8ZM299,13.5h86.6V417.7H299Z" fill="#15b3d1"/>
    <path id="Path_21" data-name="Path 21" d="M498.5,404.2H486.7V161.7a13.5,13.5,0,0,0-27,0V404.2H400.1V94.3h73.1a13.5,13.5,0,1,0,0-27H399.1V13.5A13.507,13.507,0,0,0,385.6,0H299a13.507,13.507,0,0,0-13.5,13.5V148.3H225.8v-27a13.507,13.507,0,0,0-13.5-13.5H138.7V33.7a13.507,13.507,0,0,0-13.5-13.5H38.7A13.507,13.507,0,0,0,25.2,33.7V328.1a13.5,13.5,0,0,0,27,0V47.2h59.7V404.3H13.5a13.455,13.455,0,0,0,0,26.9H498.6a13.491,13.491,0,0,0,13.1-13.8A13.661,13.661,0,0,0,498.5,404.2ZM139.3,134.7H199V404.2H139.3Zm86.6,40.5h59.7v229H225.9v-229Zm86.6,229V27h59.7V404.2Z" fill="#125ca5"/>
  </g>
</svg>
