<svg xmlns="http://www.w3.org/2000/svg" width="409.6" height="409.601" viewBox="0 0 409.6 409.601">
  <g id="check" transform="translate(0 0.001)">
    <path id="Path_888" data-name="Path 888" d="M204.8,409.6C91.9,409.6,0,317.7,0,204.8A204.811,204.811,0,0,1,51.2,69.3,12.046,12.046,0,1,1,69.3,85.2,180.734,180.734,0,0,0,24.1,204.7c0,99.6,81.1,180.7,180.7,180.7s180.7-81.1,180.7-180.7S304.4,24.1,204.8,24.1a178.623,178.623,0,0,0-78.7,18,12.053,12.053,0,0,1-10.5-21.7A202.7,202.7,0,0,1,204.8,0C317.7,0,409.6,91.9,409.6,204.8S317.7,409.6,204.8,409.6Z" fill="#009444"/>
    <path id="Path_889" data-name="Path 889" d="M349.4,204.8A144.6,144.6,0,1,1,204.8,60.2,144.613,144.613,0,0,1,349.4,204.8Z" fill="#e6fff2"/>
    <path id="Path_890" data-name="Path 890" d="M204.8,361.4c-86.4,0-156.6-70.2-156.6-156.6S118.4,48.2,204.8,48.2s156.6,70.2,156.6,156.6S291.2,361.4,204.8,361.4Zm0-289.1a132.5,132.5,0,0,0,0,265c73.1,0,132.5-59.5,132.5-132.5S277.9,72.3,204.8,72.3Z" fill="#009444"/>
    <path id="Path_891" data-name="Path 891" d="M200.9,246.7a33.483,33.483,0,0,1-23.5-9.7L145,204.5a12.021,12.021,0,0,1,17-17L194.5,220a9.114,9.114,0,0,0,12.8,0l49.8-49.9a12.021,12.021,0,0,1,17,17L224.4,237A33.307,33.307,0,0,1,200.9,246.7Z" fill="#009444"/>
  </g>
</svg>
