<svg xmlns="http://www.w3.org/2000/svg" width="324.468" height="324.468" viewBox="0 0 324.468 324.468"><g transform="translate(-1873 -349)"><circle cx="99.5" cy="99.5" r="99.5" transform="translate(1935 412)" fill="#d9e4ed"/><path d="M162.234,324.468C72.776,324.468,0,251.693,0,162.234S72.776,0,162.234,0,324.468,72.776,324.468,162.234,251.693,324.468,162.234,324.468Zm0-305.86c-79.216,0-143.626,64.426-143.626,143.626S83.034,305.86,162.234,305.86,305.86,241.426,305.86,162.234,241.426,18.608,162.234,18.608Z" transform="translate(1873 349)" fill="#1268b3"/><path d="M175.449,287.3A111.981,111.981,0,0,1,63.58,175.451a110.783,110.783,0,0,1,22.64-67.4,9.308,9.308,0,0,1,14.837,11.233,92.326,92.326,0,0,0-18.869,56.172A93.261,93.261,0,1,0,175.449,82.19a92.31,92.31,0,0,0-38.024,8.1,9.308,9.308,0,0,1-7.6-16.984,110.808,110.808,0,0,1,45.628-9.712,111.857,111.857,0,0,1,0,223.714Z" transform="translate(1859.421 335.41)" fill="#1268b3"/><path d="M195.13,236.733c-15.455-.523-28.13-8.5-28.13-16.77,0-4.389,3.874-10.837,8.769-10.837,5.418,0,9.807,7.6,19.352,9.284v-20.9c-11.882-4.515-25.8-10.06-25.8-26.577,0-16.39,12.128-24.256,25.8-26.189v-3.612c0-1.806,2.068-3.486,4.9-3.486,2.456,0,4.9,1.679,4.9,3.486v3.224c8,.261,23.091,2.321,23.091,11.225,0,3.486-2.321,10.583-8,10.583-4.254,0-6.7-4.135-15.091-4.753v18.814c11.74,4.381,25.412,10.449,25.412,27.86,0,16-10.3,25.674-25.412,28.122v3.747c0,1.806-2.448,3.485-4.9,3.485-2.836,0-4.9-1.679-4.9-3.485Zm1.291-59.61V161.779c-5.807,1.157-8.262,4.127-8.262,7.224,0,3.739,3.359,6.06,8.262,8.12Zm7.224,23.868v17.293c4.389-1.03,7.866-3.486,7.866-8.128,0-4.254-3.224-6.971-7.866-9.165Z" transform="translate(1837.822 320.408)" fill="#1268b3"/></g></svg>