<svg id="group-2" xmlns="http://www.w3.org/2000/svg" width="274.988" height="292" viewBox="0 0 274.988 292">
  <path id="Path_878" data-name="Path 878" d="M45.317,104.195a237.233,237.233,0,0,1,63.419-16.18c5.7-.627,29.371-17.491,29.519-17.6,15.535-11.406,27.6,33.78,27.6,33.78.143-.8.279-1.62.411-2.458.063-.376.12-.753.177-1.141,1.352-8.771,6.73-19.391,6.69-28.287,0-5.8-.5-10.836-1.637-14.189C161.182,27.813,136.374,37.8,136.374,37.8s-17.3-23.257-30.455-22.522h-.439v.057a9.507,9.507,0,0,0-3.656,1.095C67.856,34.679,63.356,32.4,55.737,35.05c-18.478,6.416-18.963,4.7-16.636,18.94C43,77.766,44.593,95.092,45.317,104.195Z" transform="translate(-16.38 -6.557)" fill="#d9e4ed"/>
  <path id="Path_879" data-name="Path 879" d="M277.84,173.385a194.853,194.853,0,0,1,52.235-13.328c4.711-.513,24.193-14.406,24.318-14.5,12.8-9.393,22.738,27.826,22.738,27.826.114-.656.228-1.335.342-2.025.046-.308.1-.622.143-.935,1.112-7.226,5.543-15.969,5.509-23.3,0-4.774-.416-8.943-1.346-11.686-8.5-24.968-28.938-16.739-28.938-16.739s-14.258-19.145-25.094-18.558h-.359v.046a7.859,7.859,0,0,0-3.011.9c-27.98,15.039-31.687,13.157-37.966,15.341-15.222,5.287-15.621,3.872-13.687,15.6C275.952,151.616,277.241,165.891,277.84,173.385Z" transform="translate(-116.835 -43.023)" fill="#d9e4ed"/>
  <path id="Path_880" data-name="Path 880" d="M273.18,89.607c-7.357-21.6-23.1-23.953-29.525-23.953a32.592,32.592,0,0,0-4.277.285c-5.971-6.981-16.847-17.56-27.945-17.56h-.913a8.663,8.663,0,0,0-1.979.245,16.465,16.465,0,0,0-5.093,1.711C183.019,61.32,176.4,62.769,172.029,63.721a42.933,42.933,0,0,0-5.275,1.4l-1.289.445c-.04-7.306-.724-12.815-2.1-16.853-8.241-24.136-24.9-27.746-34.093-27.746a37.778,37.778,0,0,0-5.96.485C116.709,13.636,103.3,0,90.144,0H89.031a8.737,8.737,0,0,0-2.019.257,18.159,18.159,0,0,0-5.675,1.928C56.307,15.638,48.123,17.429,42.705,18.609a51.779,51.779,0,0,0-6.2,1.643c-2.019.7-3.821,1.306-5.424,1.842-7.887,2.641-12.655,4.237-15.712,8.885-3.308,5.03-2.43,10.4-1.215,17.834,2.8,17.109,4.853,33.728,6.1,49.349V108.93a68.717,68.717,0,0,0,17.76,46.15C15.039,166.315,0,190.855,0,219.462V283.3A8.7,8.7,0,0,0,8.7,292h206.59a8.7,8.7,0,0,0,0-17.4H153.032V230.714c0-19.853,11.036-35.861,27.8-40.909a58.337,58.337,0,0,0,88.222-50.136v-8.954c.057-.336.114-.662.171-1l.154-.987a61.02,61.02,0,0,1,2.23-8.252c1.6-5.047,3.422-10.762,3.376-16.414-.023-6.228-.616-10.95-1.808-14.452ZM167.809,83.18c1.374-.462,2.914-.975,4.637-1.574a28.7,28.7,0,0,1,3.279-.844c5.629-1.226,13.334-2.909,35.776-14.959,3.314.114,11.788,7.414,17.531,15.068a8.435,8.435,0,0,0,10.169,2.9,14.611,14.611,0,0,1,4.454-.69c2.2,0,8.92,0,13.054,12.142a26.117,26.117,0,0,1,.85,7.032c-3.576-5.076-8.783-9.935-15.815-9.935a15.775,15.775,0,0,0-9.279,3.171c-6.57,4.711-17.395,11.771-20.64,12.952a208.662,208.662,0,0,0-43.213,9.747c-1.038-9.884-2.424-20.132-4.135-30.6-.16-.964-.348-2.11-.485-3.1C165.111,84.081,166.531,83.614,167.809,83.18ZM36.437,84.229C35.165,71.9,33.46,59.1,31.3,46.019c-.274-1.711-.622-3.8-.781-5.287,1.494-.6,3.81-1.374,6.08-2.133,1.654-.57,3.519-1.175,5.606-1.9a36.419,36.419,0,0,1,4.2-1.078c6.741-1.471,15.969-3.485,43.156-18.1a.821.821,0,0,1,.371-.1h.2c5.093,0,16.146,10.038,22.875,19.037a8.475,8.475,0,0,0,10.18,2.891,19.6,19.6,0,0,1,6.074-.964c8.184,0,13.944,5.235,17.611,16,.342,1,1.141,4.123,1.175,11.406a21.147,21.147,0,0,1-.382,3.753c-6.108-10.9-12.923-16.231-20.719-16.231a17.075,17.075,0,0,0-10.186,3.5c-8.315,5.965-21.946,14.828-25.71,16.037A251.569,251.569,0,0,0,36.956,85.239a8.43,8.43,0,0,0-.519-1.009Zm1.2,24.7v-5.418A234.633,234.633,0,0,1,93.3,90.109c8.754-.958,32.291-18.182,33.694-19.208,1.089.747,4.42,3.718,8.811,13.956a129,129,0,0,1,5.053,14.258v9.815a51.613,51.613,0,1,1-103.227,0ZM135.62,230.7v43.886H17.4V219.462c0-25.271,14.258-45.585,35.878-51.67a68.928,68.928,0,0,0,99.035-30.917v2.783A58.1,58.1,0,0,0,166.035,177.2c-18.444,9.861-30.4,30.084-30.4,53.512Zm75.059-50.068A41.023,41.023,0,0,1,169.7,139.658v-3.422a191.969,191.969,0,0,1,44.484-10.585c6.844-.747,23.354-12.387,27.557-15.427,2.926,2.891,7.363,12.433,9.918,21.524v7.922a41.023,41.023,0,0,1-40.971,40.977Z" fill="#1268b3"/>
</svg>
