<svg xmlns="http://www.w3.org/2000/svg" width="409.6" height="384.966" viewBox="0 0 409.6 384.966">
  <g id="id-card" transform="translate(0 -0.034)">
    <path id="Path_1" data-name="Path 1" d="M360.1,385H49.5A49.485,49.485,0,0,1,0,335.5V124.2A49.549,49.549,0,0,1,49.5,74.7H360.1a49.549,49.549,0,0,1,49.5,49.5V335.6A49.463,49.463,0,0,1,360.1,385ZM49.5,97.6A26.567,26.567,0,0,0,23,124.2V335.6a26.481,26.481,0,0,0,26.5,26.5H360.1a26.481,26.481,0,0,0,26.5-26.5V124.2a26.481,26.481,0,0,0-26.5-26.5Z" fill="#b92121"/>
    <path id="Path_2" data-name="Path 2" d="M262.6,51.9H246.1a41.31,41.31,0,0,0-82.6,0H147a34.2,34.2,0,0,0,0,68.4H262.6a34.2,34.2,0,1,0,0-68.4Z" fill="#ef94a9"/>
    <path id="Path_3" data-name="Path 3" d="M262.6,131.9H147a45.705,45.705,0,0,1,0-91.4h6.5a52.754,52.754,0,0,1,102.6,0h6.5a45.705,45.705,0,0,1,0,91.4ZM147,63.4a22.754,22.754,0,0,0,0,45.5H262.6a22.754,22.754,0,0,0,0-45.5H246.1a11.573,11.573,0,0,1-11.5-11.2,29.859,29.859,0,0,0-59.7,0,11.441,11.441,0,0,1-11.5,11.2H147Zm-4,234.3a62,62,0,1,1,.6-124,58.667,58.667,0,0,1,15.6,2.1,11.5,11.5,0,1,1-6,22.2,39.091,39.091,0,1,0,27.6,47.9,38.56,38.56,0,0,0,1.3-10.2,11.455,11.455,0,0,1,22.9,0,62.053,62.053,0,0,1-62,62Z" fill="#b92121"/>
    <path id="Path_4" data-name="Path 4" d="M180.5,300.2A71.153,71.153,0,0,0,143,289.6a72.019,72.019,0,0,0-71.8,71.9v10.7H214.9V361.5a72.178,72.178,0,0,0-34.4-61.3" fill="#ef94a9"/>
    <path id="Path_5" data-name="Path 5" d="M214.9,383.6H71.2a11.481,11.481,0,0,1-11.5-11.4V361.5a83.3,83.3,0,0,1,166.6,0v10.7A11.4,11.4,0,0,1,214.9,383.6ZM82.6,360.7H203.4a60.405,60.405,0,0,0-120.8,0ZM338.5,248.8H261.6a11.455,11.455,0,0,1,0-22.9h76.9a11.455,11.455,0,0,1,.7,22.9h-.7Zm0,82.6H261.6a11.5,11.5,0,0,1,0-23h76.9a11.5,11.5,0,0,1,0,23Z" fill="#b92121"/>
  </g>
</svg>
