<svg xmlns="http://www.w3.org/2000/svg" width="248.706" height="251.561" viewBox="0 0 248.706 251.561">
  <g id="invoice" transform="translate(0 0)">
    <path id="Path_873" data-name="Path 873" d="M108.576,241.682V218.83c9.119,1.6,10.495,6.653,10.7,9.625a1.44,1.44,0,0,0,1.445,1.351h9.959a1.474,1.474,0,0,0,1.474-1.543c-.649-12.534-9.237-20.6-23.559-22.41v-7.684a1.474,1.474,0,0,0-1.474-1.449H97.168a1.474,1.474,0,0,0-1.474,1.45v7.684c-14.9,1.887-23.584,10.539-23.584,23.952s8.7,22.066,23.584,23.952V276.61c-9.119-1.6-10.49-6.658-10.7-9.63a1.474,1.474,0,0,0-1.425-1.336H73.609a1.474,1.474,0,0,0-1.474,1.543c.668,12.519,9.257,20.567,23.579,22.395v7.684a1.474,1.474,0,0,0,1.449,1.449h9.964a1.474,1.474,0,0,0,1.474-1.45v-7.684c14.9-1.882,23.584-10.539,23.584-23.952S123.479,243.563,108.576,241.682Zm-12.863-.894c-10.731-1.882-10.736-8.554-10.736-10.976s0-9.1,10.736-10.981Zm12.863,35.823V254.653c10.736,1.882,10.736,8.549,10.736,10.976S119.312,274.728,108.576,276.61Z" transform="translate(-36.68 -100.066)" fill="#1268b3"/>
    <path id="Path_874" data-name="Path 874" d="M200,325.277H7.792A7.793,7.793,0,0,1,0,317.485V152.712a7.792,7.792,0,1,1,15.585,0v156.98H200a7.792,7.792,0,0,1,0,15.585Z" transform="translate(0 -73.717)" fill="#1268b3"/>
    <path id="Path_875" data-name="Path 875" d="M388.37,95.624l24.569-41.861,25.522,14.98L413.891,110.6Z" transform="translate(-197.552 -27.348)" fill="#d9e4ed"/>
    <path id="Path_876" data-name="Path 876" d="M109.735,70.3H236.355l21-35.793,17.2,10.092A34.172,34.172,0,0,0,240.934,15.88H82.51A34,34,0,0,1,109.732,70.3Z" transform="translate(-41.97 -8.078)" fill="#d9e4ed"/>
    <path id="Path_877" data-name="Path 877" d="M248.456,39.449a7.793,7.793,0,0,0-3.6-4.756l-5.37-3.154A42.225,42.225,0,0,0,198.959,0H42.308A42.254,42.254,0,0,0,0,42.254a7.792,7.792,0,0,0,15.585,0A26.8,26.8,0,0,1,40.093,15.575h.447A26.281,26.281,0,0,1,66.791,41.827a25.947,25.947,0,0,1-5.257,15.723,7.788,7.788,0,0,0,6.23,12.47H180.77L120.951,171.936a7.8,7.8,0,0,0-.771,6.083l5.611,19.653a7.792,7.792,0,0,0,7.488,5.655,8.005,8.005,0,0,0,1.793-.206l19.909-4.692a7.778,7.778,0,0,0,4.913-3.641l32.29-55.029v66.634a7.792,7.792,0,0,0,15.585,0V112.264a7.964,7.964,0,0,0-14.74-4.727l-44.868,76.5-9.424,2.216-2.638-9.306,57.486-98,18.8,11.035a7.8,7.8,0,0,0,10.682-2.776L247.63,45.355a7.788,7.788,0,0,0,.825-5.906ZM73.09,15.595H198.959a26.011,26.011,0,0,1,13.3,3.695l-.084.044a8.669,8.669,0,0,0-.943.491l-.138.1a7.282,7.282,0,0,0-.835.629l-.064.054a7.682,7.682,0,0,0-.762.786l-.143.177a8.079,8.079,0,0,0-.634.909L189.9,54.415H80.44a41.837,41.837,0,0,0-7.37-38.84ZM213.566,72.589,201.489,65.5,218.15,37.1l12.077,7.09Z" transform="translate(0)" fill="#1268b3"/>
  </g>
</svg>
