<svg xmlns="http://www.w3.org/2000/svg" width="516.654" height="538.5" viewBox="0 0 516.654 538.5">
  <g id="orphans" transform="translate(-4769.601 1473)">
    <path id="Path_25" data-name="Path 25" d="M156.8,465.5c-9.9,0-24.2-4.8-56.2-40.6-16.2-18.2-29.5-36-30.1-36.8a8.636,8.636,0,0,1-1-1.6,73.782,73.782,0,0,1-9.3-35.8V259.8a14.383,14.383,0,0,1,14.3-14.4h116a63.1,63.1,0,0,1,44.2,18.1L294.1,322a44.053,44.053,0,1,1-62.2,62.4L172.7,325c-5.9,0-15.5-.1-23.1-.1l-10.8-.1a14.35,14.35,0,1,1,.1-28.7h.1l10.8.1c6.8,0,14.1.1,19.6.1h6.9c4.2,0,8.5.1,12.7,4.3l63.5,63.5a15.344,15.344,0,1,0,21.7-21.7L214.6,284a33.724,33.724,0,0,0-24-9.8H88.9v76.5a45.423,45.423,0,0,0,5.2,21.1c2.6,3.5,13.6,17.9,26.5,32.4,25.5,28.8,35.2,32.2,36.5,32.6H312.2c10.6,0,22.9-5.5,34.6-11.2,9.9-4.8,83.3-54.6,127.3-84.9l.7-.5a17.289,17.289,0,0,0,5.6-23.9,17.469,17.469,0,0,0-23.3-6L350,381.4a14.353,14.353,0,0,1-15.9-23.9l107.5-71.3c.2-.1.3-.2.5-.3a46.05,46.05,0,0,1,48,78.6c-13.3,9.2-115.8,79.6-130.8,86.9-14.7,7.1-30.5,14.1-47.1,14.1Z" transform="translate(4774.4 -1400)" fill="#125ca5"/>
    <path id="Path_26" data-name="Path 26" d="M14.4,242.2H98.6V431.8H14.4Z" transform="translate(4774.4 -1400)" fill="#1db3d1"/>
    <path id="Path_27" data-name="Path 27" d="M98.5,446.1H14.4A14.4,14.4,0,0,1,0,431.7V242.2a14.383,14.383,0,0,1,14.3-14.4H98.4a14.319,14.319,0,0,1,14.3,14.4V431.8a14.149,14.149,0,0,1-14.2,14.3ZM28.7,417.4H84.1V256.5H28.7V417.4Z" transform="translate(4769.601 -1408)" fill="#125ca5"/>
    <g id="Group_4" data-name="Group 4" transform="translate(-1.2 84)">
      <g id="Group_1" data-name="Group 1" transform="translate(5.288)">
        <path id="Path_30" data-name="Path 30" d="M310.428,209.9H144.4V185.714a83.014,83.014,0,0,1,166.028,0Z" transform="translate(4798.752 -1517.978)" fill="#1db3d1"/>
        <path id="Path_31" data-name="Path 31" d="M284.546,73.773A62.673,62.673,0,1,1,221.873,11.1,62.645,62.645,0,0,1,284.546,73.773Z" transform="translate(4804.293 -1552.273)" fill="#1db3d1"/>
        <path id="Path_28" data-name="Path 28" d="M314.911,229.765H148.585A15.337,15.337,0,0,1,133.3,214.482V190.249a98.384,98.384,0,0,1,196.754-2.341v26.573A15.132,15.132,0,0,1,314.911,229.765ZM163.869,199.336H299.627v-8.95a67.886,67.886,0,0,0-135.759-1.928v10.877Z" transform="translate(4794.418 -1522.683)" fill="#125ca5"/>
        <path id="Path_29" data-name="Path 29" d="M226.168,156.036a78.068,78.068,0,1,1,78.068-78.068A78.094,78.094,0,0,1,226.168,156.036Zm0-125.57a47.5,47.5,0,1,0,47.5,47.5A47.421,47.421,0,0,0,226.168,30.466Z" transform="translate(4799.998 -1556.9)" fill="#125ca5"/>
      </g>
      <g id="Group_2" data-name="Group 2" transform="translate(-9.773 63)">
        <path id="Path_32" data-name="Path 32" d="M255.622,184.365H143.594A10.33,10.33,0,0,1,133.3,174.071V157.749a66.267,66.267,0,0,1,132.524-1.577v17.9A10.192,10.192,0,0,1,255.622,184.365Zm-101.734-20.5h91.44v-6.028a45.725,45.725,0,0,0-91.44-1.3v7.326Z" transform="translate(4666.479 -1583.493)" fill="#125ca5"/>
        <path id="Path_33" data-name="Path 33" d="M200.683,105.065a52.583,52.583,0,1,1,52.583-52.583A52.6,52.6,0,0,1,200.683,105.065Zm0-84.577a31.995,31.995,0,1,0,31.995,31.995A31.94,31.94,0,0,0,200.683,20.488Z" transform="translate(4665.404 -1576.9)" fill="#125ca5"/>
      </g>
      <g id="Group_3" data-name="Group 3" transform="translate(341.227 63)">
        <path id="Path_32-2" data-name="Path 32" d="M255.622,184.365H143.594A10.33,10.33,0,0,1,133.3,174.071V157.749a66.267,66.267,0,0,1,132.524-1.577v17.9A10.192,10.192,0,0,1,255.622,184.365Zm-101.734-20.5h91.44v-6.028a45.725,45.725,0,0,0-91.44-1.3v7.326Z" transform="translate(4666.479 -1583.493)" fill="#125ca5"/>
        <path id="Path_33-2" data-name="Path 33" d="M200.683,105.065a52.583,52.583,0,1,1,52.583-52.583A52.6,52.6,0,0,1,200.683,105.065Zm0-84.577a31.995,31.995,0,1,0,31.995,31.995A31.94,31.94,0,0,0,200.683,20.488Z" transform="translate(4665.404 -1576.9)" fill="#125ca5"/>
      </g>
    </g>
  </g>
</svg>
