<svg id="savings" xmlns="http://www.w3.org/2000/svg" width="511.854" height="465.5" viewBox="0 0 511.854 465.5">
  <path id="Path_8" data-name="Path 8" d="M156.8,465.5c-9.9,0-24.2-4.8-56.2-40.6-16.2-18.2-29.5-36-30.1-36.8a8.636,8.636,0,0,1-1-1.6,73.782,73.782,0,0,1-9.3-35.8V259.8a14.383,14.383,0,0,1,14.3-14.4h116a63.1,63.1,0,0,1,44.2,18.1L294.1,322a44.053,44.053,0,1,1-62.2,62.4L172.7,325c-5.9,0-15.5-.1-23.1-.1l-10.8-.1a14.35,14.35,0,1,1,.1-28.7h.1l10.8.1c6.8,0,14.1.1,19.6.1h6.9c4.2,0,8.5.1,12.7,4.3l63.5,63.5a15.344,15.344,0,1,0,21.7-21.7L214.6,284a33.724,33.724,0,0,0-24-9.8H88.9v76.5a45.423,45.423,0,0,0,5.2,21.1c2.6,3.5,13.6,17.9,26.5,32.4,25.5,28.8,35.2,32.2,36.5,32.6H312.2c10.6,0,22.9-5.5,34.6-11.2,9.9-4.8,83.3-54.6,127.3-84.9l.7-.5a17.289,17.289,0,0,0,5.6-23.9,17.469,17.469,0,0,0-23.3-6L350,381.4a14.353,14.353,0,0,1-15.9-23.9l107.5-71.3c.2-.1.3-.2.5-.3a46.05,46.05,0,0,1,48,78.6c-13.3,9.2-115.8,79.6-130.8,86.9-14.7,7.1-30.5,14.1-47.1,14.1Z" fill="#e57f28"/>
  <path id="Path_9" data-name="Path 9" d="M14.4,242.2H98.6V431.8H14.4Z" fill="#fec796"/>
  <path id="Path_10" data-name="Path 10" d="M98.5,446.1H14.4A14.4,14.4,0,0,1,0,431.7V242.2a14.383,14.383,0,0,1,14.3-14.4H98.4a14.319,14.319,0,0,1,14.3,14.4V431.8a14.149,14.149,0,0,1-14.2,14.3ZM28.7,417.4H84.1V256.5H28.7V417.4ZM273,214.2A107.1,107.1,0,1,1,380.2,107.1,107.1,107.1,0,0,1,273,214.2Zm0-185.5a78.4,78.4,0,1,0,78.4,78.4A78.4,78.4,0,0,0,273,28.7Z" fill="#e57f28"/>
  <circle id="Ellipse_1" data-name="Ellipse 1" cx="92.8" cy="92.8" r="92.8" transform="translate(256.1 85.8)" fill="#fec796"/>
  <path id="Path_11" data-name="Path 11" d="M348.9,285.7A107.1,107.1,0,1,1,456,178.6,107.1,107.1,0,0,1,348.9,285.7Zm0-185.5a78.4,78.4,0,1,0,78.5,78.4,78.4,78.4,0,0,0-78.5-78.4Z" fill="#e57f28"/>
  <path id="Path_12" data-name="Path 12" d="M345.4,224.9c-15.5-.5-28.2-8.5-28.2-16.8,0-4.4,3.9-10.9,8.8-10.9,5.4,0,9.8,7.6,19.4,9.3V185.6c-11.9-4.5-25.9-10.1-25.9-26.6s12.1-24.3,25.9-26.2v-3.6c0-1.8,2.1-3.5,4.9-3.5,2.5,0,4.9,1.7,4.9,3.5v3.2c8,.3,23.1,2.3,23.1,11.2,0,3.5-2.3,10.6-8,10.6-4.3,0-6.7-4.1-15.1-4.8v18.9c11.8,4.4,25.5,10.5,25.5,27.9,0,16-10.4,25.7-25.5,28.2v3.8c0,1.8-2.5,3.5-4.9,3.5-2.9,0-4.9-1.7-4.9-3.5v-3.3Zm1.3-59.7V149.8c-5.8,1.2-8.3,4.1-8.3,7.2C338.4,160.8,341.8,163.1,346.7,165.2Zm7.2,23.9v17.3c4.4-1,7.9-3.5,7.9-8.1C361.8,194,358.6,191.3,353.9,189.1Z" fill="#e57f28"/>
</svg>
