<svg xmlns="http://www.w3.org/2000/svg" width="212.192" height="228.319" viewBox="0 0 212.192 228.319">
  <g id="step01" transform="translate(-0.004 0)">
    <path id="Path_389" data-name="Path 389" d="M445.6,268.578,353.879,292.2a12.129,12.129,0,0,1-14.753-8.711l-27.74-107.722a12.129,12.129,0,0,1,8.711-14.753l85.334-21.974,21.841,9.778,27.041,105.01A12.129,12.129,0,0,1,445.6,268.578Z" transform="translate(-310.999 -139.037)" fill="#f2f2f2"/>
    <path id="Path_390" data-name="Path 390" d="M326.979,170.736a8.637,8.637,0,0,0-6.2,10.506l27.74,107.722a8.637,8.637,0,0,0,10.506,6.2l91.724-23.62a8.637,8.637,0,0,0,6.2-10.506L430.326,157.659l-19.195-8.593Z" transform="translate(-317.012 -145.384)" fill="#fff"/>
    <path id="Path_391" data-name="Path 391" d="M589.466,149.867l-14.2,3.656a4.035,4.035,0,0,1-4.914-2.9l-2.7-10.485a.252.252,0,0,1,.347-.293l21.5,9.549a.252.252,0,0,1-.039.475Z" transform="translate(-473.426 -139.534)" fill="#f2f2f2"/>
    <path id="Path_392" data-name="Path 392" d="M530.4,410.918l-41.761,10.754a2.017,2.017,0,0,1-1.006-3.907l41.761-10.754a2.017,2.017,0,0,1,1.006,3.907Z" transform="translate(-421.824 -308.593)" fill="#ccc"/>
    <path id="Path_393" data-name="Path 393" d="M543.08,423.226l-49.82,12.829a2.017,2.017,0,1,1-1.006-3.907l49.82-12.829a2.017,2.017,0,1,1,1.006,3.907Z" transform="translate(-424.751 -316.382)" fill="#ccc"/>
    <circle id="Ellipse_44" data-name="Ellipse 44" cx="7.131" cy="7.131" r="7.131" transform="translate(42.636 111.77)" fill="#e6e6e6"/>
    <path id="Path_394" data-name="Path 394" d="M465.548,267.917l-55.462,14.277a6.248,6.248,0,0,1-7.6-4.488l-11.623-45.152a6.248,6.248,0,0,1,4.488-7.6l55.462-14.277a6.248,6.248,0,0,1,7.6,4.488l11.623,45.152A6.248,6.248,0,0,1,465.548,267.917Z" transform="translate(-361.417 -184.252)" fill="#fff"/>
    <path id="Path_395" data-name="Path 395" d="M465.548,267.917l-55.462,14.277a6.248,6.248,0,0,1-7.6-4.488l-11.623-45.152a6.248,6.248,0,0,1,4.488-7.6l55.462-14.277a6.248,6.248,0,0,1,7.6,4.488l11.623,45.152A6.248,6.248,0,0,1,465.548,267.917Zm-70.014-42.252a5.513,5.513,0,0,0-3.96,6.706L403.2,277.522a5.513,5.513,0,0,0,6.706,3.96l55.462-14.277a5.513,5.513,0,0,0,3.96-6.706L457.7,215.348a5.513,5.513,0,0,0-6.706-3.96Z" transform="translate(-361.417 -184.252)" fill="#e6e6e6"/>
    <path id="Path_411" data-name="Path 411" d="M496.414,248.947l-27.991,7.205a1,1,0,0,1-1.215-.631.966.966,0,0,1,.68-1.226l28.493-7.335c1.151.583.848,1.776.032,1.986Z" transform="translate(-409.83 -207.34)" fill="#f2f2f2"/>
    <path id="Path_412" data-name="Path 412" d="M499.856,262.321l-27.991,7.205a1,1,0,0,1-1.215-.631.966.966,0,0,1,.68-1.226l28.493-7.335c1.151.583.848,1.776.032,1.986Z" transform="translate(-412.009 -215.804)" fill="#f2f2f2"/>
    <path id="Path_413" data-name="Path 413" d="M437.974,276.164l-8.543,2.2a1.087,1.087,0,0,1-1.323-.781L425.514,267.5a1.087,1.087,0,0,1,.781-1.323l8.543-2.2a1.088,1.088,0,0,1,1.323.781l2.6,10.081a1.087,1.087,0,0,1-.781,1.323Z" transform="translate(-383.449 -218.089)" fill="#e6e6e6"/>
    <path id="Path_414" data-name="Path 414" d="M481.293,289.761l-42.719,11a1,1,0,0,1-1.215-.631.966.966,0,0,1,.68-1.226l43.222-11.126c1.151.583.848,1.776.032,1.986Z" transform="translate(-390.939 -233.171)" fill="#f2f2f2"/>
    <path id="Path_415" data-name="Path 415" d="M484.736,303.139l-42.719,11a1,1,0,0,1-1.215-.631.966.966,0,0,1,.68-1.226L484.7,301.153C485.856,301.736,485.553,302.929,484.736,303.139Z" transform="translate(-393.119 -241.637)" fill="#f2f2f2"/>
    <path id="Path_416" data-name="Path 416" d="M488.178,316.508l-42.719,11a1,1,0,0,1-1.215-.631.966.966,0,0,1,.68-1.226l43.222-11.126C489.3,315.105,488.994,316.3,488.178,316.508Z" transform="translate(-395.297 -250.099)" fill="#f2f2f2"/>
    <path id="Path_417" data-name="Path 417" d="M491.621,329.885l-42.719,11a1,1,0,0,1-1.215-.631.966.966,0,0,1,.68-1.226L491.589,327.9C492.74,328.482,492.438,329.675,491.621,329.885Z" transform="translate(-397.476 -258.565)" fill="#f2f2f2"/>
    <path id="Path_418" data-name="Path 418" d="M495.063,343.255l-42.719,11a1,1,0,0,1-1.215-.631.966.966,0,0,1,.68-1.226l43.222-11.126C496.182,341.852,495.879,343.045,495.063,343.255Z" transform="translate(-399.654 -267.026)" fill="#f2f2f2"/>
    <path id="Path_395-2" data-name="Path 395" d="M443.034,459.331a.74.74,0,0,1-.468-.032l-.009,0-1.942-.824a.745.745,0,0,1,.583-1.371l1.259.535,1.649-3.88a.744.744,0,0,1,.976-.394h0l-.01.025.01-.025a.745.745,0,0,1,.394.977l-1.94,4.562a.745.745,0,0,1-.5.429Z" transform="translate(-392.741 -337.931)" fill="#fff"/>
    <path id="Path_396" data-name="Path 396" d="M589.305,370.181H494.589a12.129,12.129,0,0,1-12.115-12.115V246.83a12.129,12.129,0,0,1,12.115-12.115h88.118L601.42,249.63V358.066A12.129,12.129,0,0,1,589.305,370.181Z" transform="translate(-419.521 -199.59)" fill="#e6e6e6"/>
    <path id="Path_397" data-name="Path 397" d="M500.6,244.215a8.637,8.637,0,0,0-8.627,8.627V364.078a8.637,8.637,0,0,0,8.627,8.627h94.716a8.637,8.637,0,0,0,8.627-8.627V257.323L587.5,244.215Z" transform="translate(-425.533 -205.602)" fill="#fff"/>
    <path id="Path_398" data-name="Path 398" d="M645.475,325.363H602.352a2.017,2.017,0,1,1,0-4.035h43.123a2.017,2.017,0,0,1,0,4.035Z" transform="translate(-494.112 -254.406)" fill="#1268b3"/>
    <path id="Path_399" data-name="Path 399" d="M653.8,343.91H602.352a2.017,2.017,0,1,1,0-4.035H653.8a2.017,2.017,0,1,1,0,4.035Z" transform="translate(-494.112 -266.144)" fill="#1268b3"/>
    <path id="Path_400" data-name="Path 400" d="M645.478,404.443H602.357a2.017,2.017,0,0,0,0,4.035h43.122a2.017,2.017,0,0,0,0-4.035Z" transform="translate(-494.115 -307.008)" fill="#ccc"/>
    <path id="Path_401" data-name="Path 401" d="M653.8,422.993H602.357a2.017,2.017,0,0,0,0,4.035H653.8a2.017,2.017,0,0,0,0-4.035Z" transform="translate(-494.115 -318.748)" fill="#ccc"/>
    <path id="Path_402" data-name="Path 402" d="M645.475,491.6H602.352a2.017,2.017,0,0,1,0-4.035h43.123a2.017,2.017,0,0,1,0,4.035Z" transform="translate(-494.112 -359.614)" fill="#ccc"/>
    <path id="Path_403" data-name="Path 403" d="M653.8,510.145H602.352a2.017,2.017,0,0,1,0-4.035H653.8a2.017,2.017,0,1,1,0,4.035Z" transform="translate(-494.112 -371.352)" fill="#ccc"/>
    <circle id="Ellipse_44-2" data-name="Ellipse 44" cx="7.131" cy="7.131" r="7.131" transform="translate(83.152 65.213)" fill="#1268b3"/>
    <path id="Path_395-3" data-name="Path 395" d="M550.818,334.157a.739.739,0,0,1-.445-.148l-.008-.006-1.676-1.282a.745.745,0,0,1,.906-1.182l1.085.832,2.565-3.346a.744.744,0,0,1,1.044-.138h0l-.016.022.016-.022a.745.745,0,0,1,.138,1.044l-3.017,3.934a.745.745,0,0,1-.592.29Z" transform="translate(-461.242 -259.093)" fill="#fff"/>
    <path id="Path_404" data-name="Path 404" d="M553.75,406.917a7.13,7.13,0,0,1-7.129,7.133,1.535,1.535,0,0,1-.184-.007,7.13,7.13,0,1,1,7.313-7.126Z" transform="translate(-455.605 -304.06)" fill="#ccc"/>
    <circle id="Ellipse_44-3" data-name="Ellipse 44" cx="7.131" cy="7.131" r="7.131" transform="translate(83.152 126.241)" fill="#ccc"/>
    <path id="Path_405" data-name="Path 405" d="M773.256,250.6H758.6a4.035,4.035,0,0,1-4.035-4.035V235.735a.252.252,0,0,1,.409-.2l18.441,14.609a.252.252,0,0,1-.157.45Z" transform="translate(-591.721 -200.076)" fill="#ccc"/>
    <path id="Path_406" data-name="Path 406" d="M563.816,407.093a7.13,7.13,0,0,1-7.129,7.133,1.531,1.531,0,0,1-.184-.007,15.438,15.438,0,0,1,1.384-14.156A7.134,7.134,0,0,1,563.816,407.093Z" transform="translate(-465.67 -304.236)" fill="#1268b3"/>
    <path id="Path_407" data-name="Path 407" d="M600.334,406.462a2.023,2.023,0,0,1,2.019-2.019H613.1a15.262,15.262,0,0,1,1.325,4.035H602.353a2.019,2.019,0,0,1-2.019-2.015Z" transform="translate(-494.112 -307.008)" fill="#1268b3"/>
    <path id="Path_408" data-name="Path 408" d="M614.677,422.993a15.392,15.392,0,0,1-.536,4.035H602.357a2.017,2.017,0,0,1,0-4.035Z" transform="translate(-494.115 -318.748)" fill="#1268b3"/>
    <path id="Path_409" data-name="Path 409" d="M660.471,457.971a2.2,2.2,0,0,1-3.027.733l-25.7-15.676a2.2,2.2,0,1,1,2.294-3.761l25.7,15.676A2.2,2.2,0,0,1,660.471,457.971Z" transform="translate(-513.322 -328.844)" fill="#3f3d56"/>
    <path id="Path_410" data-name="Path 410" d="M585.494,401.868a17.622,17.622,0,1,1-5.868-24.22A17.622,17.622,0,0,1,585.494,401.868ZM559.167,385.81a13.216,13.216,0,1,0,18.165-4.4,13.216,13.216,0,0,0-18.165,4.4Z" transform="translate(-464.045 -288.417)" fill="#3f3d56"/>
    <circle id="Ellipse_7" data-name="Ellipse 7" cx="9.017" cy="9.017" r="9.017" transform="translate(168.892 89.067)" fill="#a0616a"/>
    <path id="Path_411-2" data-name="Path 411" d="M793.682,484.075a4.039,4.039,0,0,1,3.055-5.2,3.842,3.842,0,0,1,.536-.066l9.5-15.244-8.676-8.248a3.463,3.463,0,1,1,4.817-4.976l11.979,11.812.024.029a3.137,3.137,0,0,1-.218,3.739l-13.308,15.739a3.8,3.8,0,0,1,.1.384,4.039,4.039,0,0,1-3.625,4.815q-.172.015-.342.015A4.052,4.052,0,0,1,793.682,484.075Z" transform="translate(-616.356 -335.442)" fill="#a0616a"/>
    <path id="Path_412-2" data-name="Path 412" d="M432.7,579.073h-4.5l-2.141-17.36H432.7Z" transform="translate(-269.643 -355.498)" fill="#a0616a"/>
    <path id="Path_413-2" data-name="Path 413" d="M733.258,749.867H718.746v-.184a5.649,5.649,0,0,1,5.649-5.649h8.864Z" transform="translate(-569.053 -521.93)" fill="#2f2e41"/>
    <path id="Path_414-2" data-name="Path 414" d="M540.857,566.335l-3.867,2.3-10.722-13.82,5.708-3.4Z" transform="translate(-333.064 -348.984)" fill="#a0616a"/>
    <path id="Path_415-2" data-name="Path 415" d="M862.742,731.06l-12.469,7.424-.094-.158a5.649,5.649,0,0,1,1.964-7.743h0l7.616-4.534Z" transform="translate(-651.73 -510.547)" fill="#2f2e41"/>
    <path id="Path_416-2" data-name="Path 416" d="M731.557,585.778c-3.015-35.5-4.809-68.484,6.213-81.938l.085-.1,18.549,7.42.031.066c.063.136,6.231,13.706,4.792,22.833L765.8,555.1l14.918,24.979a1.652,1.652,0,0,1-.753,2.36l-6.483,2.852a1.66,1.66,0,0,1-2.074-.648l-16.228-26.462-9.166-20.3a.551.551,0,0,0-1.05.169l-5.081,47.761a1.649,1.649,0,0,1-1.643,1.477H733.2A1.663,1.663,0,0,1,731.557,585.778Z" transform="translate(-575.709 -369.848)" fill="#1268b3"/>
    <path id="Path_417-2" data-name="Path 417" d="M752.019,463.2l-.088-.042-.014-.1c-.693-4.85.127-10.238,2.438-16.015a12.716,12.716,0,0,1,14.759-7.615h0a12.7,12.7,0,0,1,8.1,6.228,12.563,12.563,0,0,1,.871,10.068c-2.913,8.517-6.691,16.486-6.729,16.566l-.079.166Z" transform="translate(-589.896 -328.929)" fill="#85eab3"/>
    <path id="Path_418-2" data-name="Path 418" d="M694.835,458.066a4.039,4.039,0,0,1,5.936,1.043,3.838,3.838,0,0,1,.249.479l17.6,3.558,4.687-11.015a3.463,3.463,0,1,1,6.347,2.769l-6.869,15.357-.019.033a3.137,3.137,0,0,1-3.579,1.1l-19.4-6.953a3.794,3.794,0,0,1-.325.227,4.039,4.039,0,0,1-5.78-1.71q-.074-.156-.134-.315a4.052,4.052,0,0,1,1.283-4.577Z" transform="translate(-552.949 -335.873)" fill="#a0616a"/>
    <path id="Path_419" data-name="Path 419" d="M809.329,393.98a7.352,7.352,0,0,0-3.807-3.517c-2.16-.735-4.5.048-6.721.57a12.452,12.452,0,0,1-5.224.309,5.866,5.866,0,0,1-4.173-2.916c-1.155-2.314-.182-5.074-.252-7.659a9.3,9.3,0,0,0-11.72-8.741c-2.127-.614-4.053-.671-5.368.964a6.241,6.241,0,0,0-6.241,6.241h5.968a5.929,5.929,0,0,0,.9,4.38c1.054,1.548,2.885,2.667,3.238,4.506.342,1.782-.869,3.472-2.14,4.768s-2.744,2.579-3.141,4.349a5.393,5.393,0,0,0,.772,3.879,12.631,12.631,0,0,0,2.712,2.987,39.8,39.8,0,0,0,16.534,8.458c4.3,1.034,9,1.3,12.985-.6a12.9,12.9,0,0,0,5.677-17.977Z" transform="translate(-598.847 -286.24)" fill="#2f2e41"/>
    <path id="Path_420" data-name="Path 420" d="M767.12,759.7H697.368a.367.367,0,0,1,0-.734H767.12a.367.367,0,0,1,0,.734Z" transform="translate(-555.291 -531.378)" fill="#ccc"/>
  </g>
</svg>
