<svg xmlns="http://www.w3.org/2000/svg" width="216.141" height="150.24" viewBox="0 0 216.141 150.24">
  <g id="step04" transform="translate(-124.745)">
    <path id="Path_533" data-name="Path 533" d="M724.557,390.728H594.929c-3.526,0-6.394-3.173-6.394-7.074v-96.4a3.971,3.971,0,0,1,2.112-3.591l48.985-29.654a19.475,19.475,0,0,1,17.282-.017l71.913,29.668a3.972,3.972,0,0,1,2.125,3.6v96.395C730.951,387.555,728.083,390.728,724.557,390.728Z" transform="translate(-431.301 -240.777)" fill="#d9e4ed" opacity="0.498"/>
    <path id="Path_534" data-name="Path 534" d="M705.529,477.821H594.214a5.279,5.279,0,0,1-5.514-4.993V405.444a2.8,2.8,0,0,1,1.837-2.559l51.83-20.733a20.179,20.179,0,0,1,14.828-.007L709.2,402.887a2.8,2.8,0,0,1,1.841,2.56v67.381A5.279,5.279,0,0,1,705.529,477.821Z" transform="translate(-431.414 -327.974)" fill="#6fbcff"/>
    <path id="Path_540" data-name="Path 540" d="M646.414,516.236v-6.969a3.427,3.427,0,0,0-3.427-3.427H625.4a3.427,3.427,0,0,0-3.427,3.427v6.969Z" transform="translate(-453.948 -412.696)" fill="#fff"/>
    <path id="Path_541" data-name="Path 541" d="M621.974,541.439v10.8a3.427,3.427,0,0,0,3.427,3.427h17.586a3.427,3.427,0,0,0,3.427-3.427v-10.8Z" transform="translate(-453.948 -436.804)" fill="#fff"/>
    <path id="Path_542" data-name="Path 542" d="M691.436,403.416l-52.8-19.355a14.441,14.441,0,0,0-9.94,0l-52.8,19.355A7.364,7.364,0,0,1,566,396.5h0a7.364,7.364,0,0,1,4.829-6.914L628.7,368.375a14.441,14.441,0,0,1,9.94,0L696.5,389.588a7.364,7.364,0,0,1,4.829,6.914h0a7.364,7.364,0,0,1-9.9,6.914Z" transform="translate(-416.041 -319.004)" fill="#1268b3"/>
    <path id="Path_543" data-name="Path 543" d="M760.593,587.106H746.482a5.655,5.655,0,0,1-5.649-5.649V547.282a5.655,5.655,0,0,1,5.649-5.649h14.112a5.655,5.655,0,0,1,5.649,5.649v34.174A5.655,5.655,0,0,1,760.593,587.106Zm-14.112-44.5a4.686,4.686,0,0,0-4.68,4.68v34.174a4.686,4.686,0,0,0,4.68,4.68h14.112a4.686,4.686,0,0,0,4.68-4.68V547.282a4.686,4.686,0,0,0-4.68-4.68Z" transform="translate(-534.442 -436.936)" fill="#3f3d56"/>
    <path id="Path_544" data-name="Path 544" d="M763.612,296.936a10.212,10.212,0,0,0-20.342,0Z" transform="translate(-536.092 -264.922)" fill="#fff"/>
    <path id="Path_545" data-name="Path 545" d="M743.151,319.842a10.21,10.21,0,1,0,20.42,0Z" transform="translate(-536.012 -286.734)" fill="#fff"/>
    <path id="Path_546" data-name="Path 546" d="M758.906,341.889H741.761a3.08,3.08,0,1,1,0-6.159h17.145a3.08,3.08,0,1,1,0,6.159Z" transform="translate(-532.985 -297.493)" fill="#d0dae2"/>
    <path id="Path_547" data-name="Path 547" d="M616.755,574.713a2.757,2.757,0,0,0,0,5.514h24.076a2.757,2.757,0,1,0,0-5.514Z" transform="translate(-448.546 -459.338)" fill="#d9e4ed"/>
    <path id="Path_548" data-name="Path 548" d="M854.216,541.439v10.8a3.427,3.427,0,0,0,3.427,3.427h17.586a3.427,3.427,0,0,0,3.427-3.427v-10.8Z" transform="translate(-611.227 -436.804)" fill="#fff"/>
    <path id="Path_549" data-name="Path 549" d="M878.656,516.236v-6.969a3.427,3.427,0,0,0-3.427-3.427H857.643a3.427,3.427,0,0,0-3.427,3.427v6.969Z" transform="translate(-611.227 -412.696)" fill="#fff"/>
    <circle id="Ellipse_31" data-name="Ellipse 31" cx="2.006" cy="2.006" r="2.006" transform="translate(225.479 124.515)" fill="#3f3d56"/>
    <path id="Path_550" data-name="Path 550" d="M479.406,369.692,471.5,357.4l.366-.235,7.5,11.665,6.111-11.648.385.2Z" transform="translate(-319.312 -241.879)" fill="#3f3d56"/>
    <path id="Path_551" data-name="Path 551" d="M548.709,553.559h-18.8v-.326a4.021,4.021,0,0,0-4.021-4.021h0a4.021,4.021,0,0,0-4.021,4.021v.326h-1.847a4.021,4.021,0,1,0,0,8.041h1.847v30.385c8.011-.161-.058.162,8.041,0V561.6h18.8a4.021,4.021,0,1,0,0-8.041Z" transform="translate(-382.18 -442.069)" fill="#1268b3"/>
    <circle id="Ellipse_32" data-name="Ellipse 32" cx="1.521" cy="1.521" r="1.521" transform="translate(142.079 113.881)" fill="#fff"/>
    <path id="Path_552" data-name="Path 552" d="M581.766,612.4H564.383a3.1,3.1,0,0,1-3.1-3.1v-5.648a3.1,3.1,0,0,1,3.1-3.1h17.384a3.1,3.1,0,0,1,3.1,3.1V609.3A3.1,3.1,0,0,1,581.766,612.4Z" transform="translate(-412.849 -476.841)" fill="#d0dae2"/>
    <rect id="Rectangle_105" data-name="Rectangle 105" width="13.475" height="2.391" rx="1.195" transform="translate(153.38 128.225)" fill="#1268b3"/>
    <path id="Path_553" data-name="Path 553" d="M298.381,681.683H101.565c-.084,0-.153-.112-.153-.25s.068-.25.153-.25H298.381c.084,0,.153.112.153.25S298.466,681.683,298.381,681.683Z" transform="translate(23.333 -531.442)" fill="#ccc"/>
    <path id="Path_554" data-name="Path 554" d="M871.83,579.872H847.754a3.08,3.08,0,0,1,0-6.159H871.83a3.08,3.08,0,0,1,0,6.159Z" transform="translate(-604.766 -458.661)" fill="#d9e4ed"/>
    <path id="Path_555" data-name="Path 555" d="M865.11,266.965s-5.838-.414-17.753-.968C833.155,241.143,787,235.152,787,217.27H843.73a21.4,21.4,0,0,1,21.4,21.4Z" transform="translate(-565.705 -217.27)" fill="#d0dae2"/>
    <path id="Path_556" data-name="Path 556" d="M875.539,237.514a.485.485,0,0,0-.484.484v16.165a.485.485,0,0,0,.484.484h10.069a.485.485,0,0,0,.484-.484V238a.485.485,0,0,0-.484-.484Z" transform="translate(-625.34 -230.98)" fill="#f2f2f2"/>
    <path id="Path_557" data-name="Path 557" d="M700.02,265.661l-52.8-31.823a14.441,14.441,0,0,0-9.94,0l-52.8,31.823a7.364,7.364,0,0,1-9.9-6.914h0a7.364,7.364,0,0,1,4.829-6.914l57.868-33.681a14.441,14.441,0,0,1,9.94,0l57.868,33.681a7.364,7.364,0,0,1,4.829,6.914h0a7.364,7.364,0,0,1-9.9,6.914Z" transform="translate(-421.854 -217.27)" fill="#d0dae2"/>
    <g id="Group_1034" data-name="Group 1034" transform="translate(217)">
      <ellipse id="Ellipse_29" data-name="Ellipse 29" cx="20.658" cy="25.858" rx="20.658" ry="25.858" transform="translate(82.57 70.442)" fill="#d9e4ed"/>
      <path id="Path_535" data-name="Path 535" d="M317.724,282.238h.057l1.022,58.569h-2.156Z" transform="translate(-214.439 -191.138)" fill="#ccc"/>
      <path id="Path_536" data-name="Path 536" d="M424.651,619.062h0a.511.511,0,0,1-.214.69l-2.963,1.56-.476-.9,2.963-1.56a.511.511,0,0,1,.69.214Z" transform="translate(-317.843 -489.188)" fill="#ccc"/>
      <ellipse id="Ellipse_30" data-name="Ellipse 30" cx="20.658" cy="25.858" rx="20.658" ry="25.858" transform="translate(23.179 70.442)" fill="#d9e4ed"/>
      <path id="Path_537" data-name="Path 537" d="M238.66,539.251h0a.511.511,0,0,0-.69-.214l-2.068,1.089-.708-40.618h-.057l-1.078,58.569h2.157l-.293-16.807,2.524-1.329A.511.511,0,0,0,238.66,539.251Z" transform="translate(-191.243 -408.408)" fill="#ccc"/>
      <path id="Path_538" data-name="Path 538" d="M274.145,331c14.457,0,26.207,27.24,26.207,45.335S288.633,409.1,274.176,409.1,248,394.43,248,376.335,259.688,331,274.145,331Z" transform="translate(-200.685 -294.29)" fill="#85eab3"/>
      <path id="Path_539" data-name="Path 539" d="M330.917,501.4a.647.647,0,0,0-.874-.271l-2.621,1.38-.9-51.467h-.072l-1.366,74.213h2.733l-.371-21.3,3.2-1.684a.647.647,0,0,0,.271-.874Z" transform="translate(-252.889 -375.585)" fill="#3f3d56"/>
    </g>
  </g>
</svg>
