<svg xmlns="http://www.w3.org/2000/svg" width="198.567" height="185.709" viewBox="0 0 198.567 185.709">
  <g id="step02" transform="translate(-542 -940.411)">
    <g id="Group_1031" data-name="Group 1031" transform="translate(542 940.411)">
      <path id="Path_516" data-name="Path 516" d="M826.9,604.414s24.565,1.27,18.844,9-20.757-4.536-20.757-4.536Z" transform="translate(-668.75 -472.471)" fill="#ffb8b8"/>
      <path id="Path_517" data-name="Path 517" d="M630.36,313.448l5,1.25s2.917,8.75,5,16.667,6.25,31.668,6.25,31.668l32.3,22.639-3.853,8.619-43.035-16.961L622.443,339.7Z" transform="translate(-517.478 -255.161)" fill="#6fbcff"/>
      <path id="Path_518" data-name="Path 518" d="M436.866,291.607,435,330.633l3.889,11.6L427.5,333.882Z" transform="translate(-319.28 -217.788)" opacity="0.2"/>
      <path id="Path_519" data-name="Path 519" d="M528.242,632.429s5.417,14.584,6.25,24.584,1.667,17.917,1.667,17.917H510.741l-5-7.5v7.5H476.157s-8.334-27.084-5-30.418,35-17.5,35-17.5Z" transform="translate(-403.902 -489.348)" fill="#2f2e41"/>
      <rect id="Rectangle_101" data-name="Rectangle 101" width="147.077" height="0.506" transform="translate(25.694 185.203)" fill="#d8d8d8"/>
      <circle id="Ellipse_23" data-name="Ellipse 23" cx="15.834" cy="15.834" r="15.834" transform="translate(76.63 10.786)" fill="#ffb8b8"/>
      <path id="Path_520" data-name="Path 520" d="M521.64,214.688l-1.25,18.334,15.834,21.251,7.917-20s-7.084-4.583-2.917-14.167Z" transform="translate(-441.26 -181.401)" fill="#ffb8b8"/>
      <path id="Path_521" data-name="Path 521" d="M494.132,360.223c0,3.752-10.417,9.584-10.417,9.584v2.083l-4.167,2.083-9.166-18.333-2.5,20s-18.335,2.919-24.168,0-8.751-1.666-17.085-4.582,3.334-42.085,3.334-42.085l-8.334-60.418,18.206-9.1.959-.481,2.5-.461,3.838-.709,12.827,8.67L461,271.888l.635,3.334,3.331-3.752,2.516-8.275,17.9,9.944-5,40S494.132,356.474,494.132,360.223Z" transform="translate(-367.501 -213.6)" fill="#6fbcff"/>
      <path id="Path_522" data-name="Path 522" d="M453.779,713.428s19.167,15.417,10,18.334-14.167-15.834-14.167-15.834Z" transform="translate(-388.399 -553.888)" fill="#ffb8b8"/>
      <path id="Path_523" data-name="Path 523" d="M388.917,301.113l-4.167-.833s-6.25,3.333-6.667,10-5.833,53.335-5.833,53.335l17.5,47.085,14.167-5.417-13.75-44.168,10.417-38.335Z" transform="translate(-330.62 -245.326)" fill="#6fbcff"/>
      <circle id="Ellipse_24" data-name="Ellipse 24" cx="1.519" cy="1.519" r="1.519" transform="translate(92.778 65.465)" fill="#2f2e41"/>
      <circle id="Ellipse_25" data-name="Ellipse 25" cx="1.519" cy="1.519" r="1.519" transform="translate(92.778 75.338)" fill="#2f2e41"/>
      <circle id="Ellipse_26" data-name="Ellipse 26" cx="1.519" cy="1.519" r="1.519" transform="translate(101.385 140.396)" fill="#2f2e41"/>
      <path id="Path_524" data-name="Path 524" d="M508.027,93.6,505.1,92.423s6.12-6.738,14.635-6.152l-2.395-2.637s5.854-2.344,11.176,3.808c2.8,3.234,6.034,7.035,8.052,11.317H539.7l-1.308,2.881,4.579,2.881-4.7-.517a16.1,16.1,0,0,1,.128,4.778,6.182,6.182,0,0,1-2.264,4.044h0s-3.63-7.514-3.63-8.685v2.929s-2.927-2.637-2.927-4.394l-1.6,2.051H517.341l1.6-2.637-6.12.879,2.395-3.222-9.476,13.307S500.311,97.989,508.027,93.6Z" transform="translate(-428.932 -83.197)" fill="#2f2e41"/>
      <circle id="Ellipse_27" data-name="Ellipse 27" cx="25.315" cy="25.315" r="25.315" transform="translate(147.938 71.778)" fill="#1268b3"/>
      <path id="Path_525" data-name="Path 525" d="M875.612,441.5V438.33a7.358,7.358,0,0,1-4.225-1.38l.663-2.1a6.754,6.754,0,0,0,3.977,1.349,3.046,3.046,0,0,0,3.286-3.074c0-1.726-1.077-2.792-3.121-3.733-2.817-1.255-4.557-2.7-4.557-5.427a4.933,4.933,0,0,1,4.17-5.051v-3.169h1.712v3.043a6.719,6.719,0,0,1,3.59,1.1l-.69,2.071a6.1,6.1,0,0,0-3.48-1.067,2.651,2.651,0,0,0-2.927,2.7c0,1.631,1.022,2.447,3.424,3.577,2.844,1.318,4.281,2.949,4.281,5.741a5.25,5.25,0,0,1-4.363,5.333V441.5Z" transform="translate(-703.403 -331.56)" fill="#6fbcff"/>
      <path id="Path_526" data-name="Path 526" d="M250.005,501.086l10.125,31.626-8.1-32.909Z" transform="translate(-186.717 -373.28)" opacity="0.2"/>
      <path id="Path_527" data-name="Path 527" d="M231.817,310.511h-6.427a1.058,1.058,0,0,1-1.056-1.056v-9.238a1.058,1.058,0,0,1,1.056-1.056h6.427a1.058,1.058,0,0,1,1.056,1.056v9.238A1.058,1.058,0,0,1,231.817,310.511Zm-6.427-10.845a.551.551,0,0,0-.55.55v9.238a.551.551,0,0,0,.55.55h6.427a.551.551,0,0,0,.55-.55v-9.238a.551.551,0,0,0-.55-.55Z" transform="translate(-220.149 -244.49)" fill="#3f3d56"/>
      <path id="Path_528" data-name="Path 528" d="M279.106,280.886h-5.8a1.37,1.37,0,0,1-1.368-1.368V260.861a1.37,1.37,0,0,1,1.368-1.368h5.8a1.37,1.37,0,0,1,1.368,1.368v18.657A1.37,1.37,0,0,1,279.106,280.886ZM273.3,260a.863.863,0,0,0-.862.862v18.657a.863.863,0,0,0,.862.862h5.8a.863.863,0,0,0,.862-.862V260.861a.863.863,0,0,0-.862-.862Z" transform="translate(-255.699 -214.865)" fill="#3f3d56"/>
      <path id="Path_529" data-name="Path 529" d="M326.482,253.631h-5.355a1.594,1.594,0,0,1-1.592-1.592V224.592A1.594,1.594,0,0,1,321.127,223h5.355a1.594,1.594,0,0,1,1.592,1.592v27.447A1.594,1.594,0,0,1,326.482,253.631Zm-5.355-30.124a1.087,1.087,0,0,0-1.086,1.086v27.447a1.087,1.087,0,0,0,1.086,1.086h5.355a1.087,1.087,0,0,0,1.086-1.086V224.592a1.087,1.087,0,0,0-1.086-1.086Z" transform="translate(-291.25 -187.609)" fill="#3f3d56"/>
      <rect id="Rectangle_102" data-name="Rectangle 102" width="4.82" height="7.832" transform="translate(6.045 56.429)" fill="#85eab3"/>
      <rect id="Rectangle_103" data-name="Rectangle 103" width="4.82" height="17.773" transform="translate(18.095 46.488)" fill="#85eab3"/>
      <rect id="Rectangle_104" data-name="Rectangle 104" width="4.82" height="27.011" transform="translate(30.145 37.25)" fill="#85eab3"/>
      <path id="Path_531" data-name="Path 531" d="M248.051,239.25h-40A.253.253,0,0,1,207.8,239V199.253a.253.253,0,1,1,.506,0v39.491h39.744a.253.253,0,0,1,0,.506Z" transform="translate(-207.801 -169.685)" fill="#3f3d56"/>
    </g>
    <path id="Path_532" data-name="Path 532" d="M5.271-23.111v11.336l-.719.635h-.7V-21.405L1.776-19.666,1.024-20.6,4-23.111Zm5.568,12.188a3.274,3.274,0,0,1-3.177-2.324,9.658,9.658,0,0,1-.619-3.695,9.622,9.622,0,0,1,.97-4.581,3.038,3.038,0,0,1,2.826-1.806,3.044,3.044,0,0,1,2.792,1.756,9.17,9.17,0,0,1,1.02,4.581,9.07,9.07,0,0,1-.836,4.213A3.183,3.183,0,0,1,10.838-10.922ZM13.2-16.958q0-5.1-2.357-5.1-2.341,0-2.341,5.066A10.009,10.009,0,0,0,8.882-13.8a2.008,2.008,0,0,0,1.956,1.588Q13.2-12.21,13.2-16.958Zm6.47,6.036a3.274,3.274,0,0,1-3.177-2.324,9.658,9.658,0,0,1-.619-3.695,9.622,9.622,0,0,1,.97-4.581,3.038,3.038,0,0,1,2.826-1.806,3.044,3.044,0,0,1,2.792,1.756,9.17,9.17,0,0,1,1.02,4.581,9.07,9.07,0,0,1-.836,4.213A3.183,3.183,0,0,1,19.666-10.922Zm2.357-6.036q0-5.1-2.357-5.1-2.341,0-2.341,5.066A10.009,10.009,0,0,0,17.71-13.8a2.008,2.008,0,0,0,1.956,1.588Q22.023-12.21,22.023-16.958Zm4.849-5.618a2.107,2.107,0,0,1,1.839.986,4.737,4.737,0,0,1,.669,2.642,4.4,4.4,0,0,1-.652,2.575,2.177,2.177,0,0,1-1.839.886A2.159,2.159,0,0,1,25-16.423a4.391,4.391,0,0,1-.619-2.508,4.619,4.619,0,0,1,.635-2.591A2.04,2.04,0,0,1,26.872-22.576Zm7.39.184L27.624-11.14h-1.2l6.621-11.252Zm-7.39.7a1.15,1.15,0,0,0-1.053.585,4.32,4.32,0,0,0-.418,2.174,4.824,4.824,0,0,0,.234,1.689,1.249,1.249,0,0,0,1.237.869,1.275,1.275,0,0,0,1.221-.819,4.419,4.419,0,0,0,.284-1.739,3.986,3.986,0,0,0-.485-2.224A1.17,1.17,0,0,0,26.872-21.69Zm6.771,3.611a2.107,2.107,0,0,1,1.839.986,4.737,4.737,0,0,1,.669,2.642,4.445,4.445,0,0,1-.652,2.575,2.177,2.177,0,0,1-1.839.886,2.159,2.159,0,0,1-1.889-.936,4.391,4.391,0,0,1-.619-2.508,4.654,4.654,0,0,1,.635-2.608A2.047,2.047,0,0,1,33.643-18.078Zm0,.886a1.15,1.15,0,0,0-1.053.585,4.32,4.32,0,0,0-.418,2.174,4.528,4.528,0,0,0,.251,1.689,1.22,1.22,0,0,0,1.221.869,1.275,1.275,0,0,0,1.221-.819,4.419,4.419,0,0,0,.284-1.739,3.986,3.986,0,0,0-.485-2.224A1.17,1.17,0,0,0,33.643-17.192Z" transform="translate(673 999.338)" fill="#009444"/>
  </g>
</svg>
