<svg xmlns="http://www.w3.org/2000/svg" width="409.6" height="356.3" viewBox="0 0 409.6 356.3">
  <g id="team2" transform="translate(0 0.1)">
    <path id="Path_13" data-name="Path 13" d="M265.2,180.7H144.4V163.1a60.4,60.4,0,1,1,120.8,0v17.6Z" fill="#1db3d1"/>
    <path id="Path_14" data-name="Path 14" d="M265.2,191.7H144.4a11.139,11.139,0,0,1-11.1-11.1V163a71.455,71.455,0,0,1,142.9-1.7v19.3A10.99,10.99,0,0,1,265.2,191.7ZM155.5,169.6h98.6v-6.5a49.3,49.3,0,0,0-98.6-1.4v7.9Z" fill="#125ca5"/>
    <path id="Path_15" data-name="Path 15" d="M250.4,56.7a45.6,45.6,0,1,1-45.6-45.6,45.58,45.58,0,0,1,45.6,45.6Z" fill="#1db3d1"/>
    <path id="Path_16" data-name="Path 16" d="M204.8,113.3a56.7,56.7,0,1,1,56.7-56.7A56.719,56.719,0,0,1,204.8,113.3Zm0-91.2a34.5,34.5,0,1,0,34.5,34.5A34.441,34.441,0,0,0,204.8,22.1ZM398.5,356.2H296.8a11.139,11.139,0,0,1-11.1-11.1V330.3a62.053,62.053,0,0,1,62-62,11.056,11.056,0,0,1,.7,22.1h-.7a39.776,39.776,0,0,0-39.8,39.8V334h79.6v-3.7a38.849,38.849,0,0,0-1.2-9.6,11.073,11.073,0,0,1,21.5-5.3,62.621,62.621,0,0,1,1.8,14.9v14.8a11.075,11.075,0,0,1-11.1,11.1Z" fill="#125ca5"/>
    <path id="Path_17" data-name="Path 17" d="M347.6,290.5A49.5,49.5,0,1,1,397.1,241,49.549,49.549,0,0,1,347.6,290.5Zm0-76.9A27.35,27.35,0,1,0,375,241,27.356,27.356,0,0,0,347.6,213.6ZM112.8,356.2H11.1A11.139,11.139,0,0,1,0,345.1V330.3a62.053,62.053,0,0,1,62-62,11.056,11.056,0,0,1,0,22.1,39.776,39.776,0,0,0-39.8,39.8V334h79.6v-3.7a38.85,38.85,0,0,0-1.2-9.6,11.072,11.072,0,1,1,21.5-5.3,62.622,62.622,0,0,1,1.8,14.9v14.8a11.012,11.012,0,0,1-11.1,11.1h0Z" fill="#125ca5"/>
    <path id="Path_18" data-name="Path 18" d="M61.9,290.5A49.5,49.5,0,1,1,111.4,241,49.549,49.549,0,0,1,61.9,290.5Zm0-76.9a27.4,27.4,0,1,0,27.4,27.5,27.293,27.293,0,0,0-27.4-27.5Zm142.9,72.1a11.139,11.139,0,0,1-11.1-11.1V218.2a11.056,11.056,0,0,1,22.1-.7v57.1a10.928,10.928,0,0,1-11,11.1Z" fill="#125ca5"/>
    <path id="Path_19" data-name="Path 19" d="M279.5,285.7H130.1a11.056,11.056,0,0,1-.7-22.1H279.6a11.056,11.056,0,0,1,.7,22.1Z" fill="#125ca5"/>
  </g>
</svg>
