<svg xmlns="http://www.w3.org/2000/svg" width="153.012" height="163.485" viewBox="0 0 153.012 163.485">
  <g id="wallet" transform="translate(0 -0.001)">
    <path id="Path_866" data-name="Path 866" d="M4.59,134.765A4.59,4.59,0,0,1,0,130.175V108.757A30.789,30.789,0,0,1,30.757,78h95.637a4.59,4.59,0,0,1,0,9.18H30.757A21.6,21.6,0,0,0,9.18,108.757v21.418a4.59,4.59,0,0,1-4.59,4.59Z" transform="translate(0 -46.867)" fill="#1268b3"/>
    <path id="Path_867" data-name="Path 867" d="M169.245,62.346a32.877,32.877,0,1,0-55.081,0Z" transform="translate(-65.39 -6.917)" fill="#85eab3"/>
    <path id="Path_868" data-name="Path 868" d="M162.4,60.019H107.315a4.586,4.586,0,0,1-3.844-2.079,37.471,37.471,0,1,1,62.768,0A4.586,4.586,0,0,1,162.4,60.019Zm-52.462-9.18h49.856a28.286,28.286,0,1,0-49.856,0Z" transform="translate(-58.54 0)" fill="#1268b3"/>
    <path id="Path_869" data-name="Path 869" d="M177.252,84c-4.682-.12-8.2-2.634-8.2-4.79,0-1.082.97-2.706,2.167-2.706,1.473,0,2.63,2.515,6.035,2.9V71.694c-3.52-1.317-7.5-2.826-7.5-7.779s3.636-7.041,7.5-7.544V55.29c0-.5.583-.97,1.317-.97.659,0,1.317.467,1.317.97V56.3c2.515.076,6.614.8,6.614,3.057,0,.886-.619,2.666-2.052,2.666-1.082,0-1.972-1.237-4.562-1.429V67.4c3.441,1.277,7.312,3.017,7.312,8.278,0,4.762-2.982,7.508-7.312,8.2v1.2c0,.5-.659.966-1.317.966-.734,0-1.317-.463-1.317-.966Zm.311-17.434V60.706c-1.932.307-3.1,1.237-3.1,2.71,0,1.7,1.317,2.435,3.1,3.133Zm2,6.075v6.7c1.7-.347,2.9-1.353,2.9-3.193,0-1.9-1.237-2.822-2.9-3.556Z" transform="translate(-101.576 -32.638)" fill="#1268b3"/>
    <path id="Path_870" data-name="Path 870" d="M127.444,240.234H30.757A30.793,30.793,0,0,1,0,209.477v-50.99A30.8,30.8,0,0,1,30.757,127.73h96.69a16.109,16.109,0,0,1,16.089,16.1v26.678a4.59,4.59,0,1,1-9.18,0V143.827a6.921,6.921,0,0,0-6.909-6.913H30.757A21.6,21.6,0,0,0,9.18,158.467v51.009a21.6,21.6,0,0,0,21.577,21.577h96.69a6.921,6.921,0,0,0,6.909-6.913v-4.359a4.59,4.59,0,0,1,9.18,0v4.359a16.109,16.109,0,0,1-16.093,16.093Z" transform="translate(0 -76.748)" fill="#1268b3"/>
    <path id="Path_871" data-name="Path 871" d="M290.479,257H253.91a17.489,17.489,0,1,1,0-34.978l36.569,0Z" transform="translate(-142.056 -133.406)" fill="#6fbcff"/>
    <path id="Path_872" data-name="Path 872" d="M283.569,254.68H247a22.08,22.08,0,1,1,0-44.16h36.569a4.6,4.6,0,0,1,4.59,4.582v34.976a4.594,4.594,0,0,1-4.59,4.59ZM247,219.7a12.9,12.9,0,1,0,0,25.8l31.975,0V219.7Z" transform="translate(-135.147 -126.493)" fill="#1268b3"/>
  </g>
</svg>
